<?xml version="1.0" encoding="UTF-8"?>
<svg version="1.1" xmlns="http://www.w3.org/2000/svg" width="512" height="512">
<path d="M0 0 C1.45108658 0.00273422 1.45108658 0.00273422 2.93148804 0.00552368 C17.26440977 0.05095174 31.21023917 0.55983928 45.3125 3.3125 C46.65803955 3.55395752 46.65803955 3.55395752 48.03076172 3.80029297 C91.63561969 11.69055147 132.77240471 31.38014943 166.3125 60.3125 C167.05757813 60.94671875 167.80265625 61.5809375 168.5703125 62.234375 C182.07529833 74.04551515 194.74668743 86.79610228 205.3125 101.3125 C206.16899066 102.46244831 207.02576433 103.61218589 207.8828125 104.76171875 C213.9234414 112.95339526 219.28255071 121.46895078 224.3125 130.3125 C224.67698242 130.94430176 225.04146484 131.57610352 225.41699219 132.22705078 C238.59268166 155.24671301 247.27606895 180.76595449 252.625 206.6875 C252.77243652 207.39817627 252.91987305 208.10885254 253.07177734 208.84106445 C256.05713787 224.48358366 256.6873098 240.11919606 256.625 256 C256.62226578 257.45108658 256.62226578 257.45108658 256.61947632 258.93148804 C256.57404826 273.26440977 256.06516072 287.21023917 253.3125 301.3125 C253.15152832 302.20952637 252.99055664 303.10655273 252.82470703 304.03076172 C244.93512494 347.63188156 225.2475709 388.77776903 196.3125 422.3125 C195.66667969 423.06917969 195.02085937 423.82585937 194.35546875 424.60546875 C183.71309817 436.7536432 172.22416267 448.57881337 159.3125 458.3125 C158.77512207 458.72628906 158.23774414 459.14007813 157.68408203 459.56640625 C147.6861221 467.25326589 137.22438153 473.99863145 126.3125 480.3125 C125.63525879 480.70679199 124.95801758 481.10108398 124.26025391 481.50732422 C101.3416244 494.68961173 75.76677437 503.29510918 49.9375 508.625 C49.22682373 508.77243652 48.51614746 508.91987305 47.78393555 509.07177734 C32.14141634 512.05713787 16.50580394 512.6873098 0.625 512.625 C-0.34239105 512.62317719 -1.3097821 512.62135437 -2.30648804 512.61947632 C-16.63940977 512.57404826 -30.58523917 512.06516072 -44.6875 509.3125 C-45.58452637 509.15152832 -46.48155273 508.99055664 -47.40576172 508.82470703 C-91.01061969 500.93444853 -132.14740471 481.24485057 -165.6875 452.3125 C-166.43257813 451.67828125 -167.17765625 451.0440625 -167.9453125 450.390625 C-181.45029833 438.57948485 -194.12168743 425.82889772 -204.6875 411.3125 C-205.54399066 410.16255169 -206.40076433 409.01281411 -207.2578125 407.86328125 C-213.2984414 399.67160474 -218.65755071 391.15604922 -223.6875 382.3125 C-224.05198242 381.68069824 -224.41646484 381.04889648 -224.79199219 380.39794922 C-237.96768166 357.37828699 -246.65106895 331.85904551 -252 305.9375 C-252.14743652 305.22682373 -252.29487305 304.51614746 -252.44677734 303.78393555 C-255.43213787 288.14141634 -256.0623098 272.50580394 -256 256.625 C-255.99817719 255.65760895 -255.99635437 254.6902179 -255.99447632 253.69351196 C-255.94904826 239.36059023 -255.44016072 225.41476083 -252.6875 211.3125 C-252.44604248 209.96696045 -252.44604248 209.96696045 -252.19970703 208.59423828 C-244.30944853 164.98938031 -224.61985057 123.85259529 -195.6875 90.3125 C-195.05328125 89.56742187 -194.4190625 88.82234375 -193.765625 88.0546875 C-181.95448485 74.54970167 -169.20389772 61.87831257 -154.6875 51.3125 C-153.53755169 50.45600934 -152.38781411 49.59923567 -151.23828125 48.7421875 C-143.04660474 42.7015586 -134.53104922 37.34244929 -125.6875 32.3125 C-125.05569824 31.94801758 -124.42389648 31.58353516 -123.77294922 31.20800781 C-100.75328699 18.03231834 -75.23404551 9.34893105 -49.3125 4 C-48.60182373 3.85256348 -47.89114746 3.70512695 -47.15893555 3.55322266 C-31.51641634 0.56786213 -15.88080394 -0.0623098 0 0 Z " fill="#ED6F26" transform="translate(255.6875,-0.3125)"/>
<path d="M0 0 C1.45108658 0.00273422 1.45108658 0.00273422 2.93148804 0.00552368 C17.26440977 0.05095174 31.21023917 0.55983928 45.3125 3.3125 C46.65803955 3.55395752 46.65803955 3.55395752 48.03076172 3.80029297 C91.63561969 11.69055147 132.77240471 31.38014943 166.3125 60.3125 C167.05757813 60.94671875 167.80265625 61.5809375 168.5703125 62.234375 C182.07529833 74.04551515 194.74668743 86.79610228 205.3125 101.3125 C206.16899066 102.46244831 207.02576433 103.61218589 207.8828125 104.76171875 C213.9234414 112.95339526 219.28255071 121.46895078 224.3125 130.3125 C224.67698242 130.94430176 225.04146484 131.57610352 225.41699219 132.22705078 C238.59268166 155.24671301 247.27606895 180.76595449 252.625 206.6875 C252.77243652 207.39817627 252.91987305 208.10885254 253.07177734 208.84106445 C256.05713787 224.48358366 256.6873098 240.11919606 256.625 256 C256.62226578 257.45108658 256.62226578 257.45108658 256.61947632 258.93148804 C256.57404826 273.26440977 256.06516072 287.21023917 253.3125 301.3125 C253.15152832 302.20952637 252.99055664 303.10655273 252.82470703 304.03076172 C244.93512494 347.63188156 225.2475709 388.77776903 196.3125 422.3125 C195.66667969 423.06917969 195.02085937 423.82585937 194.35546875 424.60546875 C183.71309817 436.7536432 172.22416267 448.57881337 159.3125 458.3125 C158.77512207 458.72628906 158.23774414 459.14007813 157.68408203 459.56640625 C147.6861221 467.25326589 137.22438153 473.99863145 126.3125 480.3125 C125.63525879 480.70679199 124.95801758 481.10108398 124.26025391 481.50732422 C101.3416244 494.68961173 75.76677437 503.29510918 49.9375 508.625 C49.22682373 508.77243652 48.51614746 508.91987305 47.78393555 509.07177734 C32.14141634 512.05713787 16.50580394 512.6873098 0.625 512.625 C-0.34239105 512.62317719 -1.3097821 512.62135437 -2.30648804 512.61947632 C-16.63940977 512.57404826 -30.58523917 512.06516072 -44.6875 509.3125 C-45.58452637 509.15152832 -46.48155273 508.99055664 -47.40576172 508.82470703 C-91.01061969 500.93444853 -132.14740471 481.24485057 -165.6875 452.3125 C-166.43257813 451.67828125 -167.17765625 451.0440625 -167.9453125 450.390625 C-181.45029833 438.57948485 -194.12168743 425.82889772 -204.6875 411.3125 C-205.54399066 410.16255169 -206.40076433 409.01281411 -207.2578125 407.86328125 C-213.2984414 399.67160474 -218.65755071 391.15604922 -223.6875 382.3125 C-224.05198242 381.68069824 -224.41646484 381.04889648 -224.79199219 380.39794922 C-237.96768166 357.37828699 -246.65106895 331.85904551 -252 305.9375 C-252.14743652 305.22682373 -252.29487305 304.51614746 -252.44677734 303.78393555 C-255.43213787 288.14141634 -256.0623098 272.50580394 -256 256.625 C-255.99817719 255.65760895 -255.99635437 254.6902179 -255.99447632 253.69351196 C-255.94904826 239.36059023 -255.44016072 225.41476083 -252.6875 211.3125 C-252.44604248 209.96696045 -252.44604248 209.96696045 -252.19970703 208.59423828 C-244.30944853 164.98938031 -224.61985057 123.85259529 -195.6875 90.3125 C-195.05328125 89.56742187 -194.4190625 88.82234375 -193.765625 88.0546875 C-181.95448485 74.54970167 -169.20389772 61.87831257 -154.6875 51.3125 C-153.53755169 50.45600934 -152.38781411 49.59923567 -151.23828125 48.7421875 C-143.04660474 42.7015586 -134.53104922 37.34244929 -125.6875 32.3125 C-125.05569824 31.94801758 -124.42389648 31.58353516 -123.77294922 31.20800781 C-100.75328699 18.03231834 -75.23404551 9.34893105 -49.3125 4 C-48.60182373 3.85256348 -47.89114746 3.70512695 -47.15893555 3.55322266 C-31.51641634 0.56786213 -15.88080394 -0.0623098 0 0 Z M-7.83007812 72.39160156 C-22.61809254 72.96647076 -36.50040407 74.92857412 -50.6875 79.3125 C-51.74582031 79.61027344 -52.80414063 79.90804687 -53.89453125 80.21484375 C-81.02655795 88.00986499 -108.42062375 103.55932187 -127.6875 124.3125 C-132.6875 129.3125 -132.6875 129.3125 -134.3515625 130.8359375 C-150.64507527 146.19072937 -161.94120762 166.92744059 -170.6875 187.3125 C-171.14769531 188.3746875 -171.60789062 189.436875 -172.08203125 190.53125 C-175.20198519 198.14733091 -177.14311104 205.83943509 -178.890625 213.85546875 C-179.6875 217.3125 -179.6875 217.3125 -180.6875 219.3125 C-182.61522353 229.5685916 -183.30322136 239.90376742 -183.6875 250.3125 C-183.71618164 250.98087891 -183.74486328 251.64925781 -183.77441406 252.33789062 C-185.562843 298.47482942 -167.81379472 345.61784533 -136.60546875 379.578125 C-134.99536939 381.1917322 -133.3578797 382.76174962 -131.6875 384.3125 C-126.6875 389.3125 -126.6875 389.3125 -125.1640625 390.9765625 C-109.80927063 407.27007527 -89.07255941 418.56620762 -68.6875 427.3125 C-67.09421875 428.00279297 -67.09421875 428.00279297 -65.46875 428.70703125 C-57.85266909 431.82698519 -50.16056491 433.76811104 -42.14453125 435.515625 C-38.6875 436.3125 -38.6875 436.3125 -36.6875 437.3125 C-26.4314084 439.24022353 -16.09623258 439.92822136 -5.6875 440.3125 C-5.01912109 440.34118164 -4.35074219 440.36986328 -3.66210938 440.39941406 C42.47482942 442.187843 89.61784533 424.43879472 123.578125 393.23046875 C125.1917322 391.62036939 126.76174962 389.9828797 128.3125 388.3125 C133.3125 383.3125 133.3125 383.3125 134.9765625 381.7890625 C155.78249042 362.18183001 169.2125781 334.34659564 177.3125 307.3125 C177.50972656 306.6623291 177.70695312 306.0121582 177.91015625 305.34228516 C183.16339699 287.61259764 185.10387482 268.75420086 184.3125 250.3125 C184.28639648 249.60544922 184.26029297 248.89839844 184.23339844 248.16992188 C183.65852924 233.38190746 181.69642588 219.49959593 177.3125 205.3125 C177.01472656 204.25417969 176.71695312 203.19585937 176.41015625 202.10546875 C168.61513501 174.97344205 153.06567813 147.57937625 132.3125 128.3125 C127.3125 123.3125 127.3125 123.3125 125.7890625 121.6484375 C106.18183001 100.84250958 78.34659564 87.4124219 51.3125 79.3125 C50.33724365 79.01666016 50.33724365 79.01666016 49.34228516 78.71484375 C30.79370125 73.21896704 11.41952745 71.68092788 -7.83007812 72.39160156 Z " fill="#ED6F26" transform="translate(255.6875,-0.3125)"/>
<path d="M0 0 C46.13693879 -1.78842893 93.27995471 15.96061934 127.24023438 47.16894531 C128.85384158 48.77904467 130.42385899 50.41653436 131.97460938 52.08691406 C133.18117188 53.29347656 133.18117188 53.29347656 134.41210938 54.52441406 C135.25773437 55.37003906 136.10335938 56.21566406 136.97460938 57.08691406 C137.79832031 57.84101563 137.79832031 57.84101563 138.63867188 58.61035156 C154.93218465 73.96514344 166.22831699 94.70185465 174.97460938 115.08691406 C175.66490234 116.68019531 175.66490234 116.68019531 176.36914062 118.30566406 C179.48909456 125.92174497 181.43022042 133.61384916 183.17773438 141.62988281 C183.79389077 144.92121118 183.79389077 144.92121118 184.97460938 147.08691406 C186.90233291 157.34300566 187.59033073 167.67818149 187.97460938 178.08691406 C188.00329102 178.75529297 188.03197266 179.42367187 188.06152344 180.11230469 C189.84995237 226.24924348 172.1009041 273.39225939 140.89257812 307.35253906 C139.28247876 308.96614627 137.64498907 310.53616368 135.97460938 312.08691406 C135.17023438 312.89128906 134.36585938 313.69566406 133.53710938 314.52441406 C132.69148438 315.37003906 131.84585937 316.21566406 130.97460938 317.08691406 C130.471875 317.63605469 129.96914063 318.18519531 129.45117188 318.75097656 C109.84393939 339.55690449 82.00870501 352.98699216 54.97460938 361.08691406 C54.32443848 361.28414063 53.67426758 361.48136719 53.00439453 361.68457031 C35.27470702 366.93781106 16.41631023 368.87828888 -2.02539062 368.08691406 C-2.73244141 368.06081055 -3.43949219 368.03470703 -4.16796875 368.0078125 C-18.95598317 367.43294331 -32.83829469 365.47083994 -47.02539062 361.08691406 C-48.08371094 360.78914063 -49.14203125 360.49136719 -50.23242188 360.18457031 C-77.36444858 352.38954908 -104.75851438 336.84009219 -124.02539062 316.08691406 C-124.82976562 315.28253906 -125.63414063 314.47816406 -126.46289062 313.64941406 C-127.30851562 312.80378906 -128.15414062 311.95816406 -129.02539062 311.08691406 C-129.57453125 310.58417969 -130.12367188 310.08144531 -130.68945312 309.56347656 C-151.49538105 289.95624408 -164.92546872 262.1210097 -173.02539062 235.08691406 C-173.22261719 234.43674316 -173.41984375 233.78657227 -173.62304688 233.11669922 C-178.87628762 215.38701171 -180.81676544 196.52861492 -180.02539062 178.08691406 C-179.98623535 177.02633789 -179.98623535 177.02633789 -179.94628906 175.94433594 C-179.37141987 161.15632152 -177.40931651 147.27401 -173.02539062 133.08691406 C-172.72761719 132.02859375 -172.42984375 130.97027344 -172.12304688 129.87988281 C-163.03085342 98.23280603 -143.3561598 67.15097567 -118.02539062 46.08691406 C-117.15398437 45.32765625 -116.28257812 44.56839844 -115.38476562 43.78613281 C-93.27911716 24.78354997 -66.90090511 10.98077374 -38.37695312 4.84863281 C-35.1743425 4.26050197 -35.1743425 4.26050197 -33.02539062 3.08691406 C-22.08169636 1.0299495 -11.09489295 0.47610679 0 0 Z M-100.02539062 86.08691406 C-103.22250628 89.61921119 -106.1657525 93.27754211 -109.02539062 97.08691406 C-109.75242187 98.04855469 -110.47945312 99.01019531 -111.22851562 100.00097656 C-128.64953953 124.06148161 -138.2142421 151.47893474 -138.21069336 181.22094727 C-138.21286735 183.25265874 -138.23104056 185.28381467 -138.25 187.31542969 C-138.39627317 220.88907944 -124.90168299 254.43753795 -102.01367188 278.94628906 C-100.40679846 280.67628244 -98.92093937 282.42137552 -97.46289062 284.27441406 C-77.18589237 307.67095051 -42.71738982 323.72439089 -12.02539062 326.08691406 C-7.64687703 326.23151787 -3.27215099 326.2727395 1.10864258 326.2722168 C3.14035406 326.27439078 5.17150998 326.292564 7.203125 326.31152344 C40.77677475 326.45779661 74.32523326 312.96320643 98.83398438 290.07519531 C100.56397775 288.4683219 102.30907084 286.98246281 104.16210938 285.52441406 C127.66928722 265.15152659 143.78904792 229.66553056 145.97460938 199.08691406 C146.16224066 194.08717789 146.22020131 189.0897634 146.22460938 184.08691406 C146.22528412 183.39749725 146.22595886 182.70808044 146.22665405 181.99777222 C146.16672872 143.41313843 129.91919103 108.40123268 102.97460938 81.08691406 C100.42535064 78.58023167 97.77659543 76.30709238 94.97460938 74.08691406 C94.47928711 73.69036621 93.98396484 73.29381836 93.47363281 72.88525391 C67.46344923 52.27413074 37.08367698 41.86608679 3.97460938 41.83691406 C3.28519257 41.83623932 2.59577576 41.83556458 1.88546753 41.83486938 C-37.05464034 41.8953468 -72.79006049 58.49322432 -100.02539062 86.08691406 Z " fill="#FEFEFD" transform="translate(252.025390625,71.9130859375)"/>
<path d="M0 0 C9.70621515 9.19208176 16.43988473 20.56610344 16.890625 34.12890625 C17.14429595 50.57095793 15.11706068 65.20383215 3.609375 77.91796875 C-0.71127643 81.89612952 -5.53819416 85.28059244 -10.3125 88.6875 C-9.3225 89.55375 -8.3325 90.42 -7.3125 91.3125 C8.34017219 107.34234501 12.69222271 132.91374987 18.86132812 153.67089844 C21.12967285 161.21816637 23.83590525 168.27335366 26.6875 175.6875 C12.4975 175.6875 -1.6925 175.6875 -16.3125 175.6875 C-21.91051951 164.49146099 -25.20076372 153.32442234 -28.25 141.25 C-31.5758106 128.1814203 -35.16306639 114.69563545 -43.3125 103.6875 C-43.85132813 102.95144531 -44.39015625 102.21539062 -44.9453125 101.45703125 C-48.47760711 98.81655359 -51.76010858 99.12851503 -56.0625 99.125 C-62.52574511 99.08729774 -67.34112925 98.25737075 -73.3125 95.6875 C-72.26580903 87.77750679 -66.69452237 78.39702777 -60.875 73 C-56.44226942 69.70309381 -51.29043514 68.46369093 -46.01953125 67.08984375 C-39.10750631 65.10308271 -33.5826289 61.69631145 -29.9609375 55.30078125 C-28.9842778 53.11910616 -28.12275015 50.93514306 -27.3125 48.6875 C-26.9825 48.0275 -26.6525 47.3675 -26.3125 46.6875 C-25.37850722 38.2548795 -26.35754584 31.66069158 -31.3125 24.6875 C-36.78028486 18.24244138 -42.03209519 16.6985563 -50.3125 13.6875 C-59.2225 13.6875 -68.1325 13.6875 -77.3125 13.6875 C-77.3125 67.1475 -77.3125 120.6075 -77.3125 175.6875 C-91.1725 175.6875 -105.0325 175.6875 -119.3125 175.6875 C-119.3125 113.3175 -119.3125 50.9475 -119.3125 -13.3125 C-32.5284063 -27.77651562 -32.5284063 -27.77651562 0 0 Z " fill="#FEFDFD" transform="translate(311.3125,170.3125)"/>
</svg>
